<svg width="20" height="20" viewBox="0 0 20 20" fill="none" xmlns="http://www.w3.org/2000/svg">
<path d="M15.4167 2.5C14.2735 2.5 13.3333 3.44014 13.3333 4.58333V16.25C13.3333 17.3932 14.2735 18.3333 15.4167 18.3333C16.5599 18.3333 17.5 17.3932 17.5 16.25V4.58333C17.5 3.44014 16.5599 2.5 15.4167 2.5ZM15.4167 3.75C15.8843 3.75 16.25 4.11569 16.25 4.58333V16.25C16.25 16.7176 15.8843 17.0833 15.4167 17.0833C14.949 17.0833 14.5833 16.7176 14.5833 16.25V4.58333C14.5833 4.11569 14.949 3.75 15.4167 3.75ZM10 6.66667C8.85681 6.66667 7.91667 7.60681 7.91667 8.75V16.25C7.91667 17.3932 8.85681 18.3333 10 18.3333C11.1432 18.3333 12.0833 17.3932 12.0833 16.25V8.75C12.0833 7.60681 11.1432 6.66667 10 6.66667ZM10 7.91667C10.4676 7.91667 10.8333 8.28236 10.8333 8.75V16.25C10.8333 16.7176 10.4676 17.0833 10 17.0833C9.53236 17.0833 9.16667 16.7176 9.16667 16.25V8.75C9.16667 8.28236 9.53236 7.91667 10 7.91667ZM4.58333 10.8333C3.44014 10.8333 2.5 11.7735 2.5 12.9167V16.25C2.5 17.3932 3.44014 18.3333 4.58333 18.3333C5.72652 18.3333 6.66667 17.3932 6.66667 16.25V12.9167C6.66667 11.7735 5.72652 10.8333 4.58333 10.8333ZM4.58333 12.0833C5.05098 12.0833 5.41667 12.449 5.41667 12.9167V16.25C5.41667 16.7176 5.05098 17.0833 4.58333 17.0833C4.11569 17.0833 3.75 16.7176 3.75 16.25V12.9167C3.75 12.449 4.11569 12.0833 4.58333 12.0833Z" fill="#848484"/>
</svg>
