<svg width="20" height="20" viewBox="0 0 20 20" fill="none" xmlns="http://www.w3.org/2000/svg">
<path d="M10.0001 1.66589C5.4052 1.66589 1.66675 5.40435 1.66675 9.99923C1.66675 11.3639 2.02621 12.6396 2.60913 13.7769L1.70581 17.0109C1.49541 17.7624 2.23838 18.5053 2.98999 18.2951L6.22648 17.3918C7.36289 17.9735 8.63664 18.3326 10.0001 18.3326C14.595 18.3326 18.3334 14.5941 18.3334 9.99923C18.3334 5.40435 14.595 1.66589 10.0001 1.66589ZM10.0001 2.91589C13.9194 2.91589 17.0834 6.07994 17.0834 9.99923C17.0834 13.9185 13.9194 17.0826 10.0001 17.0826C8.74942 17.0826 7.5795 16.7573 6.55933 16.189C6.41552 16.1089 6.24591 16.0887 6.08732 16.1329L3.00952 16.9914L3.8689 13.9152C3.91329 13.7564 3.89311 13.5864 3.81274 13.4424C3.24327 12.4215 2.91675 11.2511 2.91675 9.99923C2.91675 6.07994 6.08079 2.91589 10.0001 2.91589ZM13.1153 5.40776C12.9497 5.41034 12.7919 5.47856 12.6765 5.59743C12.5612 5.71629 12.4977 5.87609 12.5001 6.04171V8.0225C12.4891 8.0896 12.4891 8.15804 12.5001 8.22514V11.4584C12.4989 11.5412 12.5142 11.6234 12.5451 11.7003C12.576 11.7771 12.6218 11.8471 12.68 11.9061C12.7381 11.965 12.8074 12.0119 12.8838 12.0438C12.9603 12.0758 13.0423 12.0923 13.1251 12.0923C13.2079 12.0923 13.2899 12.0758 13.3663 12.0438C13.4427 12.0119 13.512 11.965 13.5702 11.9061C13.6283 11.8471 13.6742 11.7771 13.7051 11.7003C13.736 11.6234 13.7513 11.5412 13.7501 11.4584V8.75004H14.3751C14.4579 8.75121 14.5401 8.73591 14.617 8.70503C14.6938 8.67414 14.7638 8.62829 14.8228 8.57014C14.8818 8.51199 14.9286 8.44269 14.9606 8.36628C14.9925 8.28987 15.009 8.20787 15.009 8.12504C15.009 8.04221 14.9925 7.96021 14.9606 7.8838C14.9286 7.80739 14.8818 7.73809 14.8228 7.67994C14.7638 7.62179 14.6938 7.57594 14.617 7.54505C14.5401 7.51417 14.4579 7.49887 14.3751 7.50004H13.7501V6.04171C13.7513 5.95806 13.7357 5.87501 13.7042 5.7975C13.6727 5.71999 13.626 5.64959 13.5668 5.59047C13.5076 5.53135 13.4371 5.48472 13.3596 5.45333C13.282 5.42195 13.199 5.40645 13.1153 5.40776ZM8.54175 5.41671C8.45893 5.41554 8.3767 5.43084 8.29985 5.46172C8.22299 5.4926 8.15304 5.53845 8.09406 5.59661C8.03508 5.65476 7.98824 5.72406 7.95628 5.80047C7.92431 5.87688 7.90785 5.95888 7.90785 6.04171C7.90785 6.12454 7.92431 6.20654 7.95628 6.28295C7.98824 6.35936 8.03508 6.42865 8.09406 6.48681C8.15304 6.54496 8.22299 6.59081 8.29985 6.62169C8.3767 6.65258 8.45893 6.66788 8.54175 6.66671H10.4167V7.08337C10.4167 7.60525 10.1815 8.06283 9.81046 8.36918C9.74713 8.42144 9.69471 8.48566 9.6562 8.55817C9.61769 8.63069 9.59384 8.71008 9.58601 8.79181C9.57818 8.87355 9.58653 8.95602 9.61058 9.03453C9.63463 9.11304 9.67391 9.18604 9.72617 9.24936C9.77843 9.31269 9.84266 9.3651 9.91518 9.4036C9.9877 9.44211 10.0671 9.46595 10.1488 9.47376C10.2306 9.48158 10.313 9.47322 10.3915 9.44916C10.47 9.4251 10.543 9.38581 10.6064 9.33354C11.2537 8.79906 11.6667 7.98483 11.6667 7.08337V6.04171C11.6667 5.87595 11.6009 5.71699 11.4837 5.59978C11.3665 5.48258 11.2075 5.41672 11.0417 5.41671H8.54175ZM7.71086 7.50004C7.58411 7.4995 7.4602 7.53751 7.35556 7.60902C7.25091 7.68053 7.17047 7.78216 7.12492 7.90043L5.04159 13.3171C4.98202 13.4719 4.98636 13.6439 5.05366 13.7955C5.12097 13.947 5.24572 14.0656 5.40047 14.1252C5.55523 14.1848 5.7273 14.1804 5.87885 14.1131C6.0304 14.0458 6.14901 13.9211 6.20858 13.7663L6.69523 12.5H8.7216L9.20825 13.7663C9.23775 13.8429 9.28205 13.913 9.33862 13.9725C9.3952 14.032 9.46294 14.0798 9.53798 14.1131C9.61302 14.1464 9.69388 14.1647 9.77597 14.1667C9.85805 14.1688 9.93973 14.1547 10.0164 14.1252C10.093 14.0957 10.163 14.0514 10.2226 13.9948C10.2821 13.9383 10.3298 13.8705 10.3632 13.7955C10.3965 13.7204 10.4147 13.6396 10.4168 13.5575C10.4189 13.4754 10.4047 13.3937 10.3752 13.3171L8.29191 7.90043C8.24665 7.78293 8.16697 7.68184 8.06329 7.6104C7.95961 7.53896 7.83677 7.50049 7.71086 7.50004ZM7.70841 9.86658L8.24064 11.25H7.17619L7.70841 9.86658Z" fill="#848484"/>
</svg>
