<svg width="24" height="24" viewBox="0 0 24 24" fill="none" xmlns="http://www.w3.org/2000/svg">
<path d="M1.91992 1.92004V21.12C1.91995 21.3746 2.0211 21.6188 2.20113 21.7988C2.38116 21.9789 2.62532 22.08 2.87992 22.08H21.12C21.3746 22.08 21.6187 21.9789 21.7988 21.7988C21.9788 21.6188 22.0799 21.3746 22.08 21.12V15.36H20.16V20.16H3.83993V1.92004H1.91992ZM17.2696 2.39067C17.0787 2.39091 16.8923 2.44804 16.734 2.55478C16.5757 2.66152 16.4529 2.81302 16.3811 2.98992C16.3094 3.16682 16.292 3.3611 16.3312 3.54792C16.3704 3.73475 16.4644 3.90565 16.6012 4.03879L17.8425 5.28004H17.3034C12.4689 5.15973 9.41687 5.91147 7.65743 8.02879C5.898 10.1461 5.67897 13.2061 5.75993 17.2988C5.7649 17.5534 5.87081 17.7956 6.05437 17.9721C6.23792 18.1486 6.48407 18.245 6.73868 18.24C6.99329 18.2351 7.23549 18.1292 7.41201 17.9456C7.58853 17.7621 7.68491 17.5159 7.67993 17.2613C7.60106 13.2741 7.93615 10.6966 9.134 9.25504C10.3319 7.81353 12.6403 7.08516 17.2565 7.20004H17.2678H17.8425L16.6012 8.44129C16.5091 8.52975 16.4355 8.63571 16.3848 8.75295C16.3342 8.87019 16.3074 8.99637 16.3061 9.12409C16.3048 9.25181 16.329 9.37851 16.3773 9.49676C16.4255 9.61501 16.4969 9.72244 16.5872 9.81275C16.6776 9.90307 16.785 9.97445 16.9032 10.0227C17.0215 10.071 17.1482 10.0952 17.2759 10.0939C17.4036 10.0926 17.5298 10.0658 17.647 10.0152C17.7643 9.96449 17.8702 9.89093 17.9587 9.79879L20.7534 7.00411C20.8227 6.95147 20.8845 6.88965 20.9371 6.82036L21.5175 6.24004L20.9371 5.65973C20.8836 5.58886 20.8205 5.52576 20.7496 5.47223L17.9587 2.68129C17.8691 2.58922 17.762 2.51605 17.6436 2.46613C17.5253 2.41621 17.3981 2.39055 17.2696 2.39067Z" fill="#5D5D5D"/>
</svg>
