<svg width="21" height="20" viewBox="0 0 21 20" fill="none" xmlns="http://www.w3.org/2000/svg">
<path d="M2.16675 6.98098C2.16675 6.68905 2.16675 6.54308 2.17893 6.42014C2.29642 5.23435 3.23447 4.29629 4.42026 4.17881C4.5432 4.16663 4.69705 4.16663 5.00473 4.16663C5.12329 4.16663 5.18257 4.16663 5.2329 4.16358C5.87559 4.12465 6.43837 3.71902 6.67854 3.12162C6.69734 3.07484 6.71492 3.0221 6.75008 2.91663C6.78524 2.81115 6.80282 2.75841 6.82163 2.71163C7.06179 2.11423 7.62457 1.7086 8.26726 1.66967C8.31759 1.66663 8.37318 1.66663 8.48436 1.66663H12.5158C12.627 1.66663 12.6826 1.66663 12.7329 1.66967C13.3756 1.7086 13.9384 2.11423 14.1785 2.71163C14.1973 2.75841 14.2149 2.81115 14.2501 2.91663C14.2852 3.0221 14.3028 3.07484 14.3216 3.12162C14.5618 3.71902 15.1246 4.12465 15.7673 4.16358C15.8176 4.16663 15.8769 4.16663 15.9954 4.16663C16.3031 4.16663 16.457 4.16663 16.5799 4.17881C17.7657 4.29629 18.7037 5.23435 18.8212 6.42014C18.8334 6.54308 18.8334 6.68905 18.8334 6.98098V13.5C18.8334 14.9001 18.8334 15.6002 18.5609 16.1349C18.3212 16.6053 17.9388 16.9878 17.4684 17.2275C16.9336 17.5 16.2335 17.5 14.8334 17.5H6.16675C4.76662 17.5 4.06655 17.5 3.53177 17.2275C3.06137 16.9878 2.67892 16.6053 2.43923 16.1349C2.16675 15.6002 2.16675 14.9001 2.16675 13.5V6.98098Z" stroke="#999999" stroke-width="1.5" stroke-linecap="round" stroke-linejoin="round"/>
<path d="M10.5001 13.75C12.341 13.75 13.8334 12.2576 13.8334 10.4166C13.8334 8.57568 12.341 7.08329 10.5001 7.08329C8.65913 7.08329 7.16675 8.57568 7.16675 10.4166C7.16675 12.2576 8.65913 13.75 10.5001 13.75Z" stroke="#999999" stroke-width="1.5" stroke-linecap="round" stroke-linejoin="round"/>
</svg>
