<svg width="60" height="60" viewBox="0 0 60 60" fill="none" xmlns="http://www.w3.org/2000/svg">
<circle cx="30" cy="30" r="30" fill="#ECECEC"/>
<path d="M30 13.125C28.0109 13.125 26.1032 13.9152 24.6967 15.3217C23.2902 16.7282 22.5 18.6359 22.5 20.625C22.5 22.6141 23.2902 24.5218 24.6967 25.9283C26.1032 27.3348 28.0109 28.125 30 28.125C31.9891 28.125 33.8968 27.3348 35.3033 25.9283C36.7098 24.5218 37.5 22.6141 37.5 20.625C37.5 18.6359 36.7098 16.7282 35.3033 15.3217C33.8968 13.9152 31.9891 13.125 30 13.125ZM30 33.75C24.3675 33.75 13.125 36.5775 13.125 42.1875V45C13.125 46.035 13.965 46.875 15 46.875H45C46.035 46.875 46.875 46.035 46.875 45V42.1875C46.875 36.5775 35.6325 33.75 30 33.75Z" fill="white"/>
</svg>
