<svg width="20" height="20" viewBox="0 0 20 20" fill="none" xmlns="http://www.w3.org/2000/svg">
<path d="M10.0001 1.66663C5.40511 1.66663 1.66675 5.40499 1.66675 9.99996C1.66675 14.5949 5.40511 18.3333 10.0001 18.3333C14.5951 18.3333 18.3334 14.5949 18.3334 9.99996C18.3334 5.40499 14.5951 1.66663 10.0001 1.66663ZM10.0001 2.91663C13.9195 2.91663 17.0834 6.08054 17.0834 9.99996C17.0834 13.9194 13.9195 17.0833 10.0001 17.0833C6.08066 17.0833 2.91675 13.9194 2.91675 9.99996C2.91675 6.08054 6.08066 2.91663 10.0001 2.91663ZM9.78198 4.99101C9.61636 4.99359 9.45854 5.06181 9.34319 5.18068C9.22783 5.29955 9.16437 5.45934 9.16675 5.62496V10.625C9.16676 10.7907 9.23262 10.9497 9.34982 11.0669C9.46703 11.1841 9.62599 11.2499 9.79175 11.25H13.1251C13.2079 11.2511 13.2901 11.2358 13.367 11.2049C13.4438 11.1741 13.5138 11.1282 13.5728 11.0701C13.6318 11.0119 13.6786 10.9426 13.7106 10.8662C13.7425 10.7898 13.759 10.7078 13.759 10.625C13.759 10.5421 13.7425 10.4601 13.7106 10.3837C13.6786 10.3073 13.6318 10.238 13.5728 10.1799C13.5138 10.1217 13.4438 10.0759 13.367 10.045C13.2901 10.0141 13.2079 9.99879 13.1251 9.99996H10.4167V5.62496C10.4179 5.54131 10.4023 5.45826 10.3709 5.38075C10.3394 5.30324 10.2926 5.23284 10.2335 5.17372C10.1743 5.1146 10.1038 5.06797 10.0262 5.03658C9.9487 5.0052 9.86563 4.9897 9.78198 4.99101Z" fill="#848484"/>
</svg>
