<svg width="22" height="22" viewBox="0 0 22 22" fill="none" xmlns="http://www.w3.org/2000/svg">
<path d="M18.3333 9.16666C18.3333 8.92355 18.2368 8.69039 18.0649 8.51848C17.893 8.34657 17.6598 8.25 17.4167 8.25C17.1736 8.25 16.9404 8.34657 16.7685 8.51848C16.5966 8.69039 16.5 8.92355 16.5 9.16666H18.3333ZM5.50001 9.16666C5.50001 8.92355 5.40344 8.69039 5.23153 8.51848C5.05962 8.34657 4.82646 8.25 4.58335 8.25C4.34023 8.25 4.10707 8.34657 3.93517 8.51848C3.76326 8.69039 3.66668 8.92355 3.66668 9.16666H5.50001ZM18.6019 11.6481C18.7748 11.8151 19.0064 11.9075 19.2467 11.9054C19.4871 11.9033 19.717 11.8069 19.8869 11.6369C20.0569 11.467 20.1533 11.237 20.1554 10.9967C20.1575 10.7564 20.0651 10.5248 19.8981 10.3519L18.6019 11.6481ZM11 2.75L11.6481 2.10191C11.4762 1.93007 11.2431 1.83353 11 1.83353C10.7569 1.83353 10.5238 1.93007 10.3519 2.10191L11 2.75ZM2.10193 10.3519C2.01438 10.4365 1.94455 10.5376 1.8965 10.6495C1.84846 10.7613 1.82317 10.8816 1.82212 11.0033C1.82106 11.125 1.84425 11.2457 1.89034 11.3584C1.93643 11.471 2.0045 11.5734 2.09057 11.6594C2.17664 11.7455 2.27898 11.8136 2.39164 11.8597C2.50429 11.9058 2.625 11.929 2.74671 11.9279C2.86843 11.9268 2.98871 11.9015 3.10055 11.8535C3.21239 11.8055 3.31354 11.7356 3.3981 11.6481L2.10193 10.3519ZM6.41668 20.1667H15.5833V18.3333H6.41668V20.1667ZM18.3333 17.4167V9.16666H16.5V17.4167H18.3333ZM5.50001 17.4167V9.16666H3.66668V17.4167H5.50001ZM19.8981 10.3519L11.6481 2.10191L10.3519 3.39808L18.6019 11.6481L19.8981 10.3519ZM10.3519 2.10191L2.10193 10.3519L3.3981 11.6481L11.6481 3.39808L10.3519 2.10191ZM15.5833 20.1667C16.3127 20.1667 17.0122 19.8769 17.5279 19.3612C18.0436 18.8455 18.3333 18.146 18.3333 17.4167H16.5C16.5 17.6598 16.4034 17.8929 16.2315 18.0648C16.0596 18.2368 15.8265 18.3333 15.5833 18.3333V20.1667ZM6.41668 18.3333C6.17356 18.3333 5.94041 18.2368 5.7685 18.0648C5.59659 17.8929 5.50001 17.6598 5.50001 17.4167H3.66668C3.66668 18.146 3.95641 18.8455 4.47214 19.3612C4.98786 19.8769 5.68733 20.1667 6.41668 20.1667V18.3333Z" fill="#848484"/>
</svg>
