<svg width="18" height="18" viewBox="0 0 18 18" fill="none" xmlns="http://www.w3.org/2000/svg">
<path d="M9 1.125C4.65481 1.125 1.125 4.65481 1.125 9C1.125 13.3452 4.65481 16.875 9 16.875C13.3452 16.875 16.875 13.3452 16.875 9C16.875 4.65481 13.3452 1.125 9 1.125ZM8.6588 1.84739V5.23677C7.78276 5.21609 6.94986 5.11814 6.18174 4.95754C6.31699 4.54781 6.47069 4.16705 6.64157 3.8253C7.20555 2.69733 7.92087 2.01081 8.6588 1.84739ZM9.3412 1.84739C10.0791 2.01081 10.7944 2.69733 11.3584 3.8253C11.5299 4.16814 11.684 4.5503 11.8196 4.96154C11.0524 5.12053 10.2184 5.21653 9.3412 5.23677V1.84739ZM7.01143 2.0873C6.64108 2.47527 6.31085 2.96064 6.03113 3.52009C5.83619 3.90996 5.6652 4.34009 5.51599 4.79893C4.84617 4.61836 4.24041 4.39115 3.71735 4.12719C4.59762 3.17317 5.72823 2.45504 7.01143 2.0873ZM10.9886 2.0873C12.2705 2.45469 13.4001 3.17189 14.28 4.12452C13.7647 4.3933 13.1596 4.62308 12.486 4.80427C12.3364 4.3434 12.1646 3.91148 11.9689 3.52009C11.6891 2.96064 11.3589 2.47527 10.9886 2.0873ZM14.7265 4.65765C15.5785 5.78015 16.114 7.15632 16.1839 8.6588H13.0991C13.0742 7.51327 12.9278 6.43171 12.6773 5.46268C13.4429 5.25556 14.1329 4.98416 14.7265 4.65765ZM3.26952 4.66299C3.86951 4.98156 4.56071 5.24976 5.32407 5.45668C5.07262 6.42722 4.92585 7.51096 4.9009 8.6588H1.81607C1.88594 7.15869 2.41985 5.78453 3.26952 4.66299ZM5.98915 5.61729C6.81907 5.79388 7.7161 5.89904 8.6588 5.91984V8.6588H5.5833C5.60869 7.56264 5.752 6.53046 5.98915 5.61729ZM12.0122 5.62195C12.2486 6.53399 12.3914 7.56449 12.4167 8.6588H9.3412V5.91984C10.2844 5.89962 11.1825 5.79688 12.0122 5.62195ZM1.81607 9.3412H4.9009C4.9258 10.4867 5.07221 11.5683 5.32273 12.5373C4.55714 12.7444 3.86709 13.0158 3.27351 13.3423C2.42149 12.2199 1.88605 10.8437 1.81607 9.3412ZM5.5833 9.3412H8.6588V12.0802C7.71555 12.1004 6.8175 12.2031 5.98781 12.378C5.75137 11.466 5.60864 10.4355 5.5833 9.3412ZM9.3412 9.3412H12.4167C12.3913 10.4374 12.248 11.4695 12.0109 12.3827C11.1809 12.2061 10.2839 12.101 9.3412 12.0802V9.3412ZM13.0991 9.3412H16.1839C16.1141 10.8413 15.5802 12.2155 14.7305 13.337C14.1305 13.0184 13.4393 12.7502 12.6759 12.5433C12.9274 11.5728 13.0742 10.489 13.0991 9.3412ZM8.6588 12.7632V16.1526C7.92087 15.9892 7.20555 15.3027 6.64157 14.1747C6.47015 13.8319 6.31597 13.4497 6.18041 13.0385C6.94757 12.8795 7.7816 12.7835 8.6588 12.7632ZM9.3412 12.7632C10.2172 12.7839 11.0501 12.8819 11.8183 13.0425C11.683 13.4522 11.5293 13.833 11.3584 14.1747C10.7944 15.3027 10.0791 15.9892 9.3412 16.1526V12.7632ZM5.514 13.1957C5.66359 13.6566 5.83544 14.0885 6.03113 14.4799C6.31085 15.0394 6.64108 15.5247 7.01143 15.9127C5.72947 15.5453 4.59993 14.8281 3.72001 13.8755C4.23535 13.6067 4.84044 13.3769 5.514 13.1957ZM12.484 13.2011C13.1538 13.3816 13.7596 13.6089 14.2827 13.8728C13.4024 14.8268 12.2718 15.545 10.9886 15.9127C11.3589 15.5247 11.6891 15.0394 11.9689 14.4799C12.1638 14.09 12.3348 13.6599 12.484 13.2011Z" fill="#0040BF"/>
</svg>
