<svg width="232" height="48" viewBox="0 0 232 48" fill="none" xmlns="http://www.w3.org/2000/svg">
<g clip-path="url(#clip0_579_124)">
<path d="M0 13.3842L16.3558 40L19.9081 32.4118L11.0179 13.3842H0Z" fill="#FF4856"/>
<path d="M19.9082 32.4118L25.4551 20.5338L14.3232 20.5148L35.0292 0L28.7984 13.3842H39.8163L28.1336 32.4118H19.9082Z" fill="#FF4856"/>
<path d="M127.731 18.0553H120.076L117.302 25.9676H122.507L123.115 27.7026H116.694L113.807 35.9771H121.861L123.894 30.0095L125.946 35.9771H134L127.731 18.0553Z" fill="#0040BF"/>
<path d="M52.4869 31.9924C52.145 29.3232 50.0364 27.2069 47.3769 26.8637C49.5805 26.5777 51.4041 25.0905 52.145 23.0696L50.4353 18.0743H42.3809L48.6496 35.9962H56.3052L59.1926 27.7216H55.2224C53.7407 28.6368 52.6959 30.2002 52.4679 32.0114L52.4869 31.9924Z" fill="#0040BF"/>
<path d="M55.1654 25.9676H59.8195L62.5739 18.0743H54.5195L52.8098 23.0696C53.2657 24.2707 54.0826 25.2812 55.1464 25.9676H55.1654Z" fill="#0040BF"/>
<path d="M72.642 18.0743H64.6445V25.9676H72.642V18.0743Z" fill="#0040BF"/>
<path d="M72.642 27.7026H64.6445V35.9581H72.642V27.7026Z" fill="#0040BF"/>
<path d="M87.1741 25.9676H91.2773V18.0743H75.1685V25.9676H79.1577H87.1741Z" fill="#0040BF"/>
<path d="M87.1742 27.7026H79.1577V35.9772H87.1742V27.7026Z" fill="#0040BF"/>
<path d="M111.717 18.0743H103.739V23.5272L99.8257 18.0743H93.7849V25.9676H111.717V18.0743Z" fill="#0040BF"/>
<path d="M93.7849 35.9772H101.744V30.5244L105.658 35.9772H111.717V27.7026H93.7849V35.9772Z" fill="#0040BF"/>
</g>
<path d="M142.3 19.56H154.08V22.12H142.3V19.56ZM140.72 32.24H157.7V34.84H140.72V32.24ZM143.96 26.48H147.14V33.04H143.96V26.48ZM153.18 19.56H156.42V21.26C156.42 23.48 156.42 26.16 155.76 30.12L152.56 29.82C153.18 26.12 153.18 23.42 153.18 21.26V19.56ZM148.6 26.48H151.76V33.04H148.6V26.48ZM162.838 27.98H166.058V31.66H162.838V27.98ZM169.078 27.96H172.278V31.64H169.078V27.96ZM159.098 26.72H176.078V29.24H159.098V26.72ZM160.978 30.64H174.058V36.9H170.838V33.14H160.978V30.64ZM167.598 18.46C171.758 18.46 174.498 19.9 174.498 22.2C174.498 24.52 171.758 25.96 167.598 25.96C163.438 25.96 160.698 24.52 160.698 22.2C160.698 19.9 163.438 18.46 167.598 18.46ZM167.598 20.92C165.258 20.92 164.038 21.3 164.038 22.2C164.038 23.12 165.258 23.48 167.598 23.48C169.938 23.48 171.158 23.12 171.158 22.2C171.158 21.3 169.938 20.92 167.598 20.92ZM187.017 23.72H191.817V26.3H187.017V23.72ZM181.597 19.46H184.197V21.84C184.197 26.84 182.937 31.38 179.117 33.22L177.117 30.64C180.537 29.1 181.597 25.46 181.597 21.84V19.46ZM182.277 19.46H184.837V21.84C184.837 25.48 185.777 28.92 189.097 30.36L187.177 32.92C183.377 31.12 182.277 26.82 182.277 21.84V19.46ZM190.197 18.1H193.417V36.94H190.197V18.1ZM208.355 18.1H211.595V36.94H208.355V18.1ZM196.755 19.54H199.955V23.9H202.995V19.54H206.195V32.64H196.755V19.54ZM199.955 26.38V30.08H202.995V26.38H199.955ZM220.974 19.1H223.774V20.4C223.774 24.46 221.374 28.32 215.914 29.32L214.554 26.64C219.294 25.86 220.974 22.82 220.974 20.4V19.1ZM221.634 19.1H224.434V20.4C224.434 22.9 226.074 25.86 230.854 26.64L229.494 29.32C224.014 28.3 221.634 24.54 221.634 20.4V19.1ZM214.314 32.12H231.294V34.74H214.314V32.12Z" fill="#0040BF"/>
<defs>
<clipPath id="clip0_579_124">
<rect width="134" height="40" fill="white"/>
</clipPath>
</defs>
</svg>
