<svg width="134" height="100" viewBox="0 0 134 100" fill="none" xmlns="http://www.w3.org/2000/svg">
<g clip-path="url(#clip0_142_1222)">
<path d="M33.5 21.4286L59.7206 63.734L65.4135 51.667L51.1766 21.4286H33.5Z" fill="#FF4856"/>
<path d="M65.1052 51.4986L73.9987 32.6317L56.1382 32.6042L89.3485 0L79.3468 21.2648L97.0234 21.2557L78.2753 51.4986H65.1052Z" fill="#FF4856"/>
<path d="M124.835 74.0127H113.628L109.591 85.4711H117.197L118.098 87.9879H108.703L104.468 100H116.245L119.234 91.3375L122.218 100H134L124.835 74.0127Z" fill="#0040BF"/>
<path d="M14.7658 94.2113C14.2645 90.3262 11.1927 87.274 7.28861 86.7707C10.5167 86.3542 13.1701 84.1898 14.2783 81.2611L11.7767 74.0127H0L9.16019 100H20.3667L24.6019 87.9879H18.7986C16.6327 89.3195 15.106 91.5755 14.7658 94.2113Z" fill="#0040BF"/>
<path d="M18.6793 85.4711H25.4897L29.5317 74.0127H17.755L15.2534 81.2611C15.9156 83.0046 17.1296 84.4781 18.6839 85.4711H18.6793Z" fill="#0040BF"/>
<path d="M44.242 74.0402H32.5435V85.4757H44.242V74.0402Z" fill="#0040BF"/>
<path d="M44.242 87.9879H32.5435V99.9725H44.242V87.9879Z" fill="#0040BF"/>
<path d="M65.5101 85.4665H71.4973V74.0219H47.9438V85.4665H53.7793V85.4711H65.5101V85.4665Z" fill="#0040BF"/>
<path d="M65.51 87.9879H53.7793V100H65.51V87.9879Z" fill="#0040BF"/>
<path d="M101.401 74.0402H89.7304V81.9521L84.0283 74.0402H75.167V85.4711H101.401V74.0402Z" fill="#0040BF"/>
<path d="M75.167 100H86.8334V92.088L92.5401 100H101.401V87.9879H75.167V100Z" fill="#0040BF"/>
</g>
<defs>
<clipPath id="clip0_142_1222">
<rect width="134" height="100" fill="white"/>
</clipPath>
</defs>
</svg>
